<?xml version="1.0" encoding="iso-8859-1"?>
<!-- Uploaded to: SVG Repo, www.svgrepo.com, Generator: SVG Repo Mixer Tools -->
<svg fill="#000000" height="800px" width="800px" version="1.1" id="Layer_1" xmlns="http://www.w3.org/2000/svg" xmlns:xlink="http://www.w3.org/1999/xlink" 
	 viewBox="0 0 512 512" xml:space="preserve">
<g>
	<g>
		<g>
			<path d="M255.997,234.492c22.353,0,40.538-18.185,40.538-40.539c0-22.354-18.185-40.539-40.538-40.539
				s-40.538,18.185-40.538,40.539C215.459,216.307,233.644,234.492,255.997,234.492z M255.997,169.462
				c13.505,0,24.491,10.988,24.491,24.492c0,13.505-10.987,24.492-24.491,24.492s-24.491-10.987-24.491-24.492
				C231.506,180.448,242.492,169.462,255.997,169.462z"/>
			<path d="M297.28,109.11c4.844,0.002,8.773-3.93,8.772-8.771c-0.001-4.849-3.929-8.771-8.772-8.771
				c-4.842-0.002-8.77,3.922-8.77,8.773C288.509,105.182,292.436,109.11,297.28,109.11z"/>
			<path d="M73.123,377.621c-4.842-0.002-8.77,3.922-8.77,8.773c-0.002,4.841,3.925,8.767,8.769,8.767
				c4.844,0.004,8.773-3.928,8.772-8.769C81.894,381.543,77.966,377.621,73.123,377.621z"/>
			<path d="M353.667,272.489c4.843,0.002,8.773-3.93,8.772-8.769c-0.001-4.849-3.929-8.771-8.772-8.773
				c-4.841-0.002-8.77,3.924-8.769,8.773C344.896,268.563,348.823,272.489,353.667,272.489z"/>
			<path d="M149.748,257.937c-0.001-4.849-3.929-8.771-8.772-8.771c-4.842-0.002-8.77,3.922-8.77,8.773
				c-0.002,4.841,3.925,8.769,8.769,8.769C145.82,266.71,149.749,262.777,149.748,257.937z"/>
			<path d="M453.963,351.947c-14.156,0-25.674,11.518-25.674,25.674c0,14.156,11.518,25.674,25.674,25.674
				s25.674-11.518,25.674-25.674C479.638,363.465,468.12,351.947,453.963,351.947z M453.963,387.249
				c-5.308,0-9.628-4.319-9.628-9.628c0-5.309,4.32-9.628,9.628-9.628c5.308,0,9.628,4.319,9.628,9.628
				C463.591,382.929,459.272,387.249,453.963,387.249z"/>
			<path d="M417.433,297.177c-4.842-0.002-8.77,3.922-8.77,8.773c-0.002,4.841,3.925,8.769,8.769,8.769
				c4.844,0.002,8.773-3.93,8.773-8.771C426.205,301.099,422.276,297.177,417.433,297.177z"/>
			<path d="M391.454,360.078c-4.842-0.002-8.77,3.922-8.77,8.773c-0.002,4.841,3.925,8.769,8.769,8.769
				c4.844,0.002,8.773-3.93,8.773-8.771C400.225,364,396.296,360.078,391.454,360.078z"/>
			<path d="M482.063,327.346c0.171-2.047,0.257-4.102,0.257-6.149c0-31.551-20.431-59.407-49.695-69.345
				c21.038-8.131,39.794-22.214,53.475-40.323c16.037-21.227,24.514-46.51,24.514-73.119c0-20.03-16.296-36.326-36.326-36.326
				s-36.325,16.296-36.325,36.326c0,23.52-16.411,43.11-38.641,47.797c-1.699-26.782-18.117-50.695-42.424-61.916
				c-0.707-39.764-33.275-71.899-73.206-71.899h-55.386c-39.932,0-72.499,32.135-73.207,71.899
				c-24.306,11.221-40.724,35.134-42.424,61.917c-22.233-4.683-38.647-24.274-38.647-47.798c0-20.03-16.296-36.326-36.326-36.326
				S1.376,118.38,1.376,138.41c0,26.608,8.477,51.892,24.514,73.12c13.682,18.11,32.44,32.193,53.48,40.324
				c-29.261,9.941-49.691,37.795-49.691,69.344c0,2.048,0.087,4.103,0.257,6.149C11.099,341.13,0,362.842,0,386.392
				c0,40.371,32.846,73.216,73.218,73.216h365.564c40.373,0,73.218-32.845,73.218-73.216
				C512,362.842,500.901,341.13,482.063,327.346z M435.799,183.46c11.744-12.173,18.212-28.172,18.212-45.05
				c0-11.182,9.097-20.279,20.28-20.279s20.28,9.097,20.28,20.279c0,23.089-7.355,45.027-21.27,63.447
				c-11.695,15.479-27.648,27.569-45.552,34.677c-3.724-13.664-11.319-25.922-22.05-35.369
				C417.056,198.167,427.445,192.118,435.799,183.46z M38.694,201.855c-13.916-18.419-21.27-40.358-21.27-63.447
				c0-11.182,9.097-20.28,20.28-20.28s20.28,9.097,20.28,20.28c0,16.878,6.468,32.877,18.212,45.05
				c8.356,8.662,18.745,14.709,30.109,17.707c-10.731,9.447-18.326,21.704-22.049,35.371
				C66.348,229.426,50.39,217.336,38.694,201.855z M438.782,443.561H73.218c-31.524,0-57.171-25.646-57.171-57.169
				c0-19.731,9.985-37.814,26.711-48.372c2.702-1.706,4.135-4.852,3.646-8.01c-0.448-2.902-0.676-5.868-0.676-8.813
				c0-27.016,19.172-50.568,45.587-55.999c3.789-0.78,6.483-4.152,6.406-8.019l-0.018-0.639c-0.006-0.18-0.014-0.359-0.014-0.541
				c0-20.212,10.348-38.525,27.681-48.987c2.759-1.666,4.254-4.82,3.796-8.009c-0.395-2.75-0.596-5.508-0.596-8.199
				c0-23.872,15.048-45.444,37.445-53.679c3.324-1.223,5.455-4.48,5.24-8.015c-0.08-1.317-0.119-2.464-0.119-3.503
				c0-31.524,25.648-57.169,57.171-57.169h55.386c31.524,0,57.171,25.647,57.171,57.169c0,1.046-0.039,2.192-0.118,3.503
				c-0.214,3.536,1.916,6.793,5.24,8.015c22.397,8.234,37.445,29.806,37.445,53.679c0,2.689-0.2,5.448-0.595,8.2
				c-0.458,3.189,1.037,6.344,3.796,8.008c17.332,10.461,27.681,28.775,27.681,48.987c0,0.182-0.007,0.362-0.014,0.541l-0.018,0.639
				c-0.077,3.867,2.617,7.24,6.406,8.019c26.415,5.431,45.587,28.983,45.587,55.999c0,2.945-0.228,5.91-0.676,8.813
				c-0.489,3.158,0.944,6.304,3.646,8.01c16.726,10.557,26.711,28.64,26.711,48.372
				C495.954,417.916,470.307,443.561,438.782,443.561z"/>
			<path d="M391.456,238.096c-0.001-4.849-3.929-8.771-8.772-8.773c-4.842-0.002-8.77,3.924-8.77,8.773
				c-0.002,4.843,3.925,8.769,8.769,8.769C387.526,246.867,391.456,242.934,391.456,238.096z"/>
			<path d="M348.887,407.489c-4.841-0.002-8.77,3.924-8.769,8.773c-0.002,4.843,3.925,8.769,8.769,8.769
				c4.843,0.002,8.773-3.93,8.772-8.769C357.658,411.412,353.73,407.491,348.887,407.489z"/>
			<path d="M255.997,271.741c42.893,0,77.789-34.896,77.789-77.788c0-42.893-34.897-77.79-77.789-77.79s-77.789,34.897-77.789,77.79
				C178.207,236.845,213.104,271.741,255.997,271.741z M255.997,132.21c34.045,0,61.743,27.698,61.743,61.744
				c0,34.044-27.698,61.741-61.743,61.741s-61.743-27.697-61.743-61.741C194.253,159.908,221.952,132.21,255.997,132.21z"/>
			<path d="M353.642,289.154h-29.948c-4.431,0-8.023,3.591-8.023,8.023v25.641c0,7.091-5.769,12.861-12.862,12.861
				s-12.862-5.769-12.862-12.861v-25.641c0-4.432-3.592-8.023-8.023-8.023h-61.278c-4.431,0-8.023,3.591-8.023,8.023
				c0,7.093-5.769,12.862-12.862,12.862c-7.093,0-12.863-5.769-12.863-12.862c0-4.432-3.592-8.023-8.023-8.023h-20.527
				c-7.057,0-12.47,2.01-16.09,5.976c-3.095,3.39-4.554,7.952-4.108,12.84c2.652,29.288,16.086,56.414,37.828,76.382
				c21.879,20.092,50.297,31.159,80.021,31.159c29.723,0,58.142-11.067,80.019-31.159c21.742-19.968,35.177-47.094,37.828-76.383
				c0.443-4.893-1.017-9.454-4.113-12.843C366.11,291.163,360.697,289.154,353.642,289.154z M357.863,306.522
				c-2.291,25.305-13.905,48.748-32.702,66.012c-18.91,17.367-43.473,26.931-69.166,26.931c-25.693,0-50.256-9.564-69.167-26.931
				c-18.797-17.264-30.41-40.707-32.702-66.016c-0.025-0.266,0-0.484,0.026-0.599c0.249-0.158,1.334-0.719,4.192-0.719h13.636
				c3.485,12.05,14.618,20.885,27.776,20.885c13.158,0,24.29-8.836,27.776-20.885h46.365v17.618
				c0,15.939,12.969,28.907,28.908,28.907c15.941,0,28.908-12.968,28.908-28.907V305.2h21.925c2.864,0,3.947,0.562,4.196,0.72
				C357.862,306.036,357.888,306.254,357.863,306.522z"/>
		</g>
	</g>
</g>
</svg>